<svg xmlns="http://www.w3.org/2000/svg" version="1.1" xmlns:xlink="http://www.w3.org/1999/xlink" xmlns:svgjs="http://svgjs.dev/svgjs" width="1440" height="560" preserveAspectRatio="none" viewBox="0 0 1440 560"><g mask="url(&quot;#SvgjsMask1008&quot;)" fill="none"><rect width="1440" height="560" x="0" y="0" fill="rgba(245, 40, 145, 0.03)"></rect><path d="M140 0C140 0 140 0 140 0C210 0 225.26 -30.96 280 0C349.04 39.04 337.15 67.82 387.56 140C407.15 168.05 403.02 200.45 420 200.45C437.46 200.45 434.74 167.68 456.44 140C504.74 78.4 504.2 75.86 560 21.88C576.57 5.86 578.74 3.51 601.18 0C648.74 -7.43 650.59 0 700 0C737.34 0 740.51 -10.55 774.67 0C810.51 11.07 808.08 20.55 840 43.24C906.55 90.55 910.11 88.28 971.6 140C980.11 147.16 976.08 161 980 161C983.84 161 979 147.28 987.12 140C1049 84.51 1045.45 61.3 1120 35.47C1181.89 14.03 1196.75 57.73 1260 45.45C1288.09 40 1275.35 8.87 1302.68 0C1345.35 -13.85 1351.34 0 1400 0C1470 0 1505 -35 1540 0C1575 35 1540 70 1540 140C1540 210 1540 210 1540 280C1540 331.74 1569.27 354.81 1540 383.48C1499.27 423.38 1468.63 421.91 1400 417.14C1328.63 412.17 1314.73 362.96 1260 364C1239.13 364.39 1248.8 394 1248.8 420C1248.8 426.59 1252.92 429.01 1260 429.18C1328.52 430.85 1346.57 393.62 1400 423.68C1462.82 459.03 1492.5 516.35 1492.5 560C1492.5 584.51 1446.25 560 1400 560C1330 560 1330 560 1260 560C1190 560 1190 560 1120 560C1102.5 560 1101.08 566.03 1085 560C1031.08 539.78 1022.33 507.5 980 507.5C959.71 507.5 982.14 551.61 959.76 560C912.14 577.86 899.88 560 840 560C770 560 770 560 700 560C630 560 630 560 560 560C490 560 490 560 420 560C350 560 350 560 280 560C210 560 210 560 140 560C70 560 35 595 0 560C-35 525 0 490 0 420C0 350 0 350 0 280C0 210 0 210 0 140C0 70 -35 35 0 0C35 -35 70 0 140 0" stroke="rgba(245, 40, 145, 0.03)" stroke-width="2"></path><path d="M1400 124.69C1391.82 124.69 1383.39 132.03 1383.39 140C1383.39 148.59 1391.84 157.82 1400 157.82C1407.92 157.82 1415.56 148.62 1415.56 140C1415.56 132.05 1407.9 124.69 1400 124.69" stroke="rgba(245, 40, 145, 0.03)" stroke-width="2"></path><path d="M140 233.33C113.48 233.33 91 260.91 91 280C91 295.13 114.86 301.78 140 301.78C174.36 301.78 210 295.94 210 280C210 261.71 172.98 233.33 140 233.33" stroke="rgba(245, 40, 145, 0.03)" stroke-width="2"></path><path d="M1120 239.24C1078.56 239.24 1039.5 258.48 1039.5 280C1039.5 302.19 1078.26 326.67 1120 326.67C1174.03 326.67 1231.03 302.06 1231.03 280C1231.03 258.34 1174.32 239.24 1120 239.24" stroke="rgba(245, 40, 145, 0.03)" stroke-width="2"></path><path d="M420 389.38C401.94 389.38 382.31 407.84 382.31 420C382.31 430.05 401.4 433.8 420 433.8C435.56 433.8 450.63 429.7 450.63 420C450.63 407.49 436.1 389.38 420 389.38" stroke="rgba(245, 40, 145, 0.03)" stroke-width="2"></path><path d="M87.76 0C122.7 43.29 133.74 80.61 112.98 140C89.86 206.13 33.21 251.03 0 251.03C-23.28 251.03 0 195.51 0 140C0 70 -26.97 43.03 0 0C16.91 -26.97 66.21 -26.71 87.76 0" stroke="rgba(245, 40, 145, 0.03)" stroke-width="2"></path><path d="M171.43 140C171.43 96.21 231.12 55.56 280 55.56C317.84 55.56 344.88 96.87 344.88 140C344.88 186.59 318.48 235 280 235C231.75 235 171.43 185.93 171.43 140" stroke="rgba(245, 40, 145, 0.03)" stroke-width="2"></path><path d="M504.38 140C504.38 104.46 525.77 99.99 560 76.56C623.58 33.03 631.94 1.68 700 6.09C771.94 10.75 771.03 48.9 840 94.71C871.83 115.85 901.6 109.4 901.6 140C901.6 199 871.04 207.07 840 273.91C838.53 277.07 836.59 277.23 836.59 280C836.59 281.83 838.44 281.41 840 283.11C903 351.41 944.12 342.94 965.71 420C982.91 481.38 958.83 514.07 917.59 560C895.98 584.07 878.8 560 840 560C781.45 560 777.14 569.76 722.91 560C707.14 557.16 713.71 534.8 700 534.8C678.02 534.8 677.7 555.29 651.54 560C607.7 567.89 605.77 560 560 560C490 560 490 560 420 560C370.37 560 320.73 576.98 320.73 560C320.73 538.53 366.18 514.59 420 483.1C485.82 444.59 490 451.55 560 420C560 420 560 420 560 420C569.13 350 578.26 347.57 578.26 280C578.26 265.57 567.01 269.29 560 256C530.07 199.29 504.38 194.18 504.38 140" stroke="rgba(245, 40, 145, 0.03)" stroke-width="2"></path><path d="M1046.44 140C1046.44 111.53 1077.27 91.95 1120 82.13C1184.05 67.41 1195.23 72.54 1260 90.91C1297.27 101.48 1324.07 111.35 1324.07 140C1324.07 176.98 1303.07 210.57 1260 222.17C1201.04 238.04 1184.96 219.93 1120 194.94C1078.18 178.85 1046.44 167.93 1046.44 140" stroke="rgba(245, 40, 145, 0.03)" stroke-width="2"></path><path d="M1400 70C1370.4 37.04 1345.37 21.67 1345.37 0C1345.37 -13.33 1372.68 0 1400 0C1470 0 1505 -35 1540 0C1575 35 1540 70 1540 140C1540 210 1540 210 1540 280C1540 312.72 1562.3 334.97 1540 345.43C1492.3 367.82 1462.94 364.72 1400 345.71C1354.6 332 1323.33 311.77 1323.33 280C1323.33 249.64 1365.16 254.46 1400 221.45C1439.05 184.46 1471.11 179.38 1471.11 140C1471.11 103.66 1433.27 107.04 1400 70" stroke="rgba(245, 40, 145, 0.03)" stroke-width="2"></path><path d="M0 420C70 399.78 71.2 379.56 140 379.56C189.09 379.56 235.79 396.83 235.79 420C235.79 444.63 176.84 437.33 140 475.15C108.65 507.33 133.45 539.38 99.42 560C63.45 581.8 20.64 589.07 0 560C-29.07 519.07 0 490 0 420C0 420 0 420 0 420" stroke="rgba(245, 40, 145, 0.03)" stroke-width="2"></path><path d="M1006.92 420C1006.92 393.2 1066.32 377.39 1120 377.39C1152.26 377.39 1150.18 397.68 1178.8 420C1220.18 452.27 1213.18 466.28 1260 486.56C1323.78 514.18 1338.12 489.06 1400 515.79C1423.12 525.78 1430 545.84 1430 560C1430 567.95 1415 560 1400 560C1330 560 1330 560 1260 560C1217.74 560 1209.51 577.02 1175.47 560C1139.51 542.02 1153.86 518.12 1120 490C1069.58 448.12 1006.92 449.5 1006.92 420" stroke="rgba(245, 40, 145, 0.03)" stroke-width="2"></path><path d="M35.52 0C56.12 55.91 63.32 76.99 51.58 140C45.56 172.34 15.16 190.69 0 190.69C-10.63 190.69 0 165.35 0 140C0 70 -14.17 55.83 0 0C3.59 -14.17 30.33 -14.09 35.52 0" stroke="rgba(245, 40, 145, 0.03)" stroke-width="2"></path><path d="M242.86 140C242.86 125.02 263.28 111.11 280 111.11C292.95 111.11 302.2 125.24 302.2 140C302.2 155.94 293.16 172.5 280 172.5C263.49 172.5 242.86 155.71 242.86 140" stroke="rgba(245, 40, 145, 0.03)" stroke-width="2"></path><path d="M552.33 140C552.33 135.1 554.46 131.25 560 131.25C598.3 131.25 640 133.85 640 140C640 146.23 596 156 560 156C552.17 156 552.33 147.47 552.33 140" stroke="rgba(245, 40, 145, 0.03)" stroke-width="2"></path><path d="M1105.76 140C1105.76 134.49 1111.18 129.01 1120 128.8C1188.3 127.19 1190.59 130.99 1260 136.36C1262.96 136.59 1264.75 137.88 1264.75 140C1264.75 142.74 1263.78 145.81 1260 146.09C1191.41 151.13 1188.44 153.33 1120 150.63C1111.32 150.29 1105.76 145.4 1105.76 140" stroke="rgba(245, 40, 145, 0.03)" stroke-width="2"></path><path d="M1400 15.31C1393.17 8.41 1388.05 4.74 1388.05 0C1388.05 -2.92 1394.03 0 1400 0C1470 0 1505 -35 1540 0C1575 35 1540 70 1540 140C1540 210 1540 210 1540 280C1540 293.69 1551.04 307.39 1540 307.39C1488.04 307.39 1416.78 314.96 1414 280C1410.12 231.27 1530.19 206.54 1526.67 140C1523.19 74.19 1462.48 78.41 1400 15.31" stroke="rgba(245, 40, 145, 0.03)" stroke-width="2"></path><path d="M654.35 280C667.24 219.46 675.99 163.33 700 163.33C724.42 163.33 715.19 229.15 751.22 280C785.19 327.93 797.12 318.93 840 360.89C868.65 388.93 887.87 383.93 894.29 420C905.58 483.49 897.12 504.03 875.42 560C869.98 574.03 857.71 560 840 560C813.28 560 807.1 573.97 786.55 560C737.1 526.37 745.57 509.99 700 464.8C674.98 439.99 653.01 450.95 645.37 420C630.19 358.55 639.92 347.79 654.35 280" stroke="rgba(245, 40, 145, 0.03)" stroke-width="2"></path><path d="M0 491.43C13.41 491.43 48.7 538.29 48.7 560C48.7 572.57 10.11 574.24 0 560C-14.24 539.95 -10.94 491.43 0 491.43" stroke="rgba(245, 40, 145, 0.03)" stroke-width="2"></path><path d="M384.36 560C384.36 552.29 399.68 532.39 420 532.39C462.04 532.39 509.09 552.94 509.09 560C509.09 566.74 464.54 560 420 560C402.18 560 384.36 566.1 384.36 560" stroke="rgba(245, 40, 145, 0.03)" stroke-width="2"></path><path d="M1241.51 560C1241.51 555.42 1249.13 543.93 1260 543.93C1282.88 543.93 1309 555.88 1309 560C1309 563.91 1284.5 560 1260 560C1250.76 560 1241.51 563.46 1241.51 560" stroke="rgba(245, 40, 145, 0.03)" stroke-width="2"></path></g><defs><mask id="SvgjsMask1008"><rect width="1440" height="560" fill="#ffffff"></rect></mask></defs></svg>